<svg id="ezXi7PkM1cw1" xmlns="http://www.w3.org/2000/svg" xmlns:xlink="http://www.w3.org/1999/xlink" viewBox="0 0 32 32" shape-rendering="geometricPrecision" text-rendering="geometricPrecision"><rect width="24.042657" height="3.929552" rx="0" ry="0" transform="translate(4.030377 4.756827)" fill="#d2dbed" stroke-width="0"/><rect width="24.042657" height="3.929552" rx="0" ry="0" transform="translate(4.030377 4.756827)" fill="#d2dbed" stroke-width="0"/><rect width="24.042657" height="3.929552" rx="0" ry="0" transform="matrix(.498923 0 0 1 4.00458 11.323316)" fill="#d2dbed" stroke-width="0"/><rect width="24.042657" height="3.929552" rx="0" ry="0" transform="matrix(.123605 0 0 1 4.052297 25.07675)" fill="#d2dbed" stroke-width="0"/><rect width="24.042657" height="3.929552" rx="0" ry="0" transform="matrix(.247744 0 0 1 4.045871 18.355147)" fill="#d2dbed" stroke-width="0"/><polygon points="0,-2.164814 0.636223,-0.875686 2.058861,-0.668964 1.02943,0.334482 1.272446,1.751372 0,1.082407 -1.272446,1.751372 -1.02943,0.334482 -2.058861,-0.668964 -0.636223,-0.875686 0,-2.164814" transform="matrix(-.764291 0.644871-.644871-.764291 27.939725 3.257402)" fill="#d2dbed" stroke-width="0"/></svg>